<?xml version="1.0" standalone="no"?>
<!DOCTYPE svg PUBLIC "-//W3C//DTD SVG 20010904//EN"
 "http://www.w3.org/TR/2001/REC-SVG-20010904/DTD/svg10.dtd">
<svg version="1.0" xmlns="http://www.w3.org/2000/svg"
 width="448.000000pt" height="512.000000pt" viewBox="0 0 448.000000 512.000000"
 preserveAspectRatio="xMidYMid meet">

<g transform="translate(0.000000,512.000000) scale(0.100000,-0.100000)"
fill="#000000" stroke="none">
<path d="M1889 3958 l-43 -218 -453 0 -453 0 0 -1400 0 -1400 255 0 255 0 0
85 0 85 765 0 765 0 0 -80 0 -80 280 0 280 0 0 1390 0 1390 -580 0 c-319 0
-580 2 -580 5 0 3 28 87 61 186 34 99 60 181 58 183 -2 2 -131 19 -286 38
l-281 34 -43 -218z m969 -695 l122 -6 0 -119 0 -118 -760 0 -760 0 0 125 0
125 638 0 c352 0 694 -3 760 -7z m-10 -710 l112 -6 0 -139 0 -138 -750 0 -750
0 0 145 0 145 638 0 c350 0 688 -3 750 -7z m122 -853 l0 -150 -760 0 -760 0 0
140 c0 77 1 141 3 142 4 2 831 14 1180 16 l337 2 0 -150z"/>
</g>
</svg>
